<svg width="210" height="220" viewBox="0 0 210 220" fill="none" xmlns="http://www.w3.org/2000/svg">
<g filter="url(#filter0_d_9_31)">
<path d="M126.104 20.0153C126.168 19.9306 126.634 20.2064 127.101 20.6091C127.588 21.012 128.543 22.1355 129.243 23.0894C129.921 24.0434 130.749 25.3788 131.088 26.0359C131.427 26.7143 131.936 27.9864 132.233 28.8555C132.529 29.7247 132.869 31.4205 132.996 32.6075C133.144 34.1975 133.145 35.491 132.975 37.3353C132.848 38.7344 132.55 40.5361 132.338 41.3629C132.105 42.1684 131.808 43.2288 131.639 43.6952C131.469 44.1617 130.918 45.3484 130.43 46.3445C129.921 47.3408 128.925 49.1431 128.204 50.3727C127.462 51.6022 126.528 53.2558 126.125 54.0826C125.722 54.8881 125.191 56.181 124.959 56.9443C124.704 57.7071 124.365 58.9369 124.174 59.7001C123.984 60.5268 123.856 62.1386 123.856 63.7283C123.856 65.1911 123.92 66.6964 124.174 67.7564H128.776C131.321 67.7564 133.399 67.7135 133.399 67.6499C133.398 67.5842 133.08 66.716 132.678 65.6786C132.275 64.6613 131.808 63.071 131.617 62.1383C131.32 60.7179 131.299 60.209 131.511 58.9583C131.639 58.1316 132 56.7959 132.276 55.9901C132.573 55.1635 133.293 53.7858 133.865 52.9168C134.459 52.0476 135.731 50.1819 136.686 48.7827C137.64 47.3836 138.658 45.8145 138.913 45.2845C139.189 44.7545 139.613 43.7374 139.888 42.9956C140.164 42.2748 140.481 41.0446 140.587 40.2391C140.714 39.4123 140.715 37.9282 140.609 36.6988C140.524 35.533 140.291 34.1762 140.1 33.6675C139.846 32.9892 139.824 32.7772 140.016 32.7772C140.164 32.7772 140.673 33.2652 141.139 33.8799C141.605 34.4947 142.157 35.2577 142.348 35.5757C142.56 35.9151 142.942 36.869 143.196 37.6957C143.557 38.8615 143.663 39.7308 143.641 41.1511C143.641 42.1899 143.471 43.6738 143.259 44.4369C143.069 45.2001 142.665 46.3874 142.39 47.0869C142.093 47.7865 141.478 48.9737 140.99 49.7368C140.524 50.5001 139.443 52.1537 138.594 53.4467C137.747 54.7187 136.537 56.8171 135.901 58.1101C135.243 59.3822 134.565 60.9091 134.375 61.5025C134.184 62.0749 133.95 63.3043 133.823 64.1945C133.681 65.2968 133.681 66.1659 133.823 66.8017C134.014 67.6497 134.099 67.7564 134.607 67.7564C134.947 67.7564 137.491 67.8622 140.291 67.9682C143.09 68.0952 148.095 68.371 151.424 68.604C154.753 68.8374 158.274 69.1339 159.27 69.2399C160.267 69.3672 161.836 69.5363 162.769 69.6423C163.702 69.7697 165.123 69.9607 165.95 70.0671C166.756 70.1941 169.194 70.5756 171.357 70.9574C173.521 71.3178 176.575 71.9325 178.144 72.314C179.713 72.7168 182.237 73.4582 183.763 73.9671C185.269 74.4758 187.029 75.176 187.665 75.5149C188.279 75.8542 189.001 76.4052 189.234 76.7656C189.531 77.1894 189.722 77.9314 189.828 78.9914C189.934 79.8606 189.998 82.7649 189.998 85.4571C190.019 88.3402 189.892 91.5419 189.701 93.3014C189.532 94.9335 189.192 97.2653 188.959 98.4955C188.704 99.725 188.323 101.378 188.089 102.205C187.855 103.011 187.326 104.791 186.923 106.126C186.499 107.462 185.735 109.561 185.205 110.791C184.675 112.02 183.721 114.055 183.064 115.348C182.427 116.62 181.516 118.295 181.049 119.058C180.583 119.821 179.776 121.051 179.289 121.814C178.78 122.577 177.762 124.018 177.041 125.015C176.299 126.033 174.836 127.771 173.797 128.915C172.736 130.039 171.464 131.438 170.934 131.99C170.403 132.562 169.406 133.495 168.707 134.068C168.007 134.661 166.947 135.572 166.374 136.102C165.78 136.632 165.271 137.077 165.208 137.056C165.143 137.057 164.486 137.544 163.723 138.138C162.96 138.731 162.303 139.218 162.239 139.197C162.175 139.197 161.794 139.494 161.391 139.834C160.988 140.172 160.522 140.469 160.373 140.469C160.246 140.469 160.097 140.554 160.055 140.638C160.034 140.745 159.249 141.275 158.316 141.847C157.383 142.419 155.241 143.565 153.544 144.413C151.848 145.261 149.558 146.321 148.456 146.807C147.353 147.274 144.914 148.101 143.048 148.631C141.182 149.161 138.658 149.839 137.428 150.136C136.199 150.412 134.82 150.687 134.354 150.751C133.887 150.793 132.742 150.942 131.808 151.07C130.875 151.196 129.815 151.323 129.475 151.387C129.115 151.429 127.165 151.536 125.128 151.62C122.902 151.705 119.976 151.663 117.812 151.515C115.82 151.366 112.957 151.069 111.451 150.836C109.924 150.603 108.312 150.327 107.845 150.221C107.379 150.115 106.128 149.818 105.089 149.585C104.029 149.331 102.375 148.907 101.378 148.61C100.382 148.313 98.6209 147.741 97.4548 147.316C96.2881 146.893 93.8495 145.854 92.0471 145.027C90.2448 144.179 87.4245 142.717 85.7915 141.784C84.1599 140.831 82.7189 140.131 82.6106 140.172C82.4834 140.236 81.7832 141.021 81.0412 141.911C80.2991 142.801 79.0055 144.264 78.1785 145.133C77.3514 146.002 76.3971 147.042 75.5065 148.101L76.0792 149.522C76.5453 150.709 76.6518 151.323 76.6518 152.977C76.6733 154.418 76.5667 155.351 76.2698 156.262C76.0365 156.962 75.6127 157.958 75.3158 158.488C75.0189 158.997 74.2344 160.015 73.5768 160.714C72.9408 161.414 71.3075 163.174 69.9717 164.637C68.6358 166.099 67.2367 167.667 66.8335 168.134C66.452 168.601 65.5393 169.597 64.8183 170.339C64.1185 171.081 63.2497 172.035 62.9313 172.459C62.5923 172.883 61.5951 174.007 60.7044 174.939C59.8137 175.893 58.5841 177.229 57.9692 177.907C57.3755 178.607 56.1876 179.942 55.3183 180.896C54.4701 181.85 51.3103 185.39 48.2779 188.74C45.2666 192.089 42.1707 195.566 41.3861 196.436C40.3258 197.623 39.6044 198.217 38.5017 198.789C37.5899 199.255 36.4026 199.657 35.4273 199.827C34.5366 199.975 33.2426 200.039 32.458 199.975C31.6947 199.912 30.5074 199.7 29.8077 199.509C29.1079 199.34 27.9623 198.895 27.2625 198.555C26.5628 198.195 25.3542 197.326 24.5484 196.584C23.7638 195.863 22.7882 194.782 22.3853 194.21C21.9824 193.616 21.3675 192.429 21.0282 191.559C20.689 190.691 20.2863 189.397 20.159 188.698C19.947 187.701 19.947 187.107 20.159 185.942C20.2863 185.115 20.689 183.907 21.0282 183.228C21.3675 182.571 22.3855 181.235 23.2762 180.26C24.1881 179.285 26.033 177.25 27.3901 175.745C28.7473 174.24 30.7407 172.014 31.8223 170.784C32.9037 169.555 34.8756 167.265 36.2327 165.696C37.5899 164.128 39.5624 161.881 40.6227 160.714C41.6831 159.548 43.7827 157.174 45.2883 155.415C46.815 153.677 48.5747 151.662 49.2108 150.962C49.847 150.242 51.2891 148.631 52.3918 147.359C53.4945 146.088 55.0639 144.327 55.8909 143.479C56.9301 142.398 57.7784 141.72 58.7537 141.253C59.9625 140.66 60.3869 140.576 62.2528 140.491C63.7583 140.448 64.6914 140.512 65.4337 140.745C66.4091 141.042 66.5365 141.042 67.0242 140.724C67.3 140.533 68.0632 139.727 68.7205 138.964C69.3568 138.18 70.7773 136.526 71.8376 135.297C72.9185 134.068 73.8091 133.009 73.8101 132.944C73.8101 132.88 72.4107 131.438 70.6719 129.7C68.6996 127.707 66.7487 125.503 65.3279 123.616C64.1189 121.984 62.5709 119.779 61.9135 118.74C61.2561 117.679 60.0265 115.539 59.1994 113.97C58.3934 112.401 57.1207 109.667 56.4209 107.928C55.721 106.169 54.8093 103.561 54.4063 102.099C54.0034 100.635 53.4096 98.1979 53.0703 96.693C52.731 95.1665 52.3068 92.9829 52.1584 91.8173C51.9675 90.439 51.8618 87.6191 51.8618 83.7613C51.8618 79.8185 51.9465 77.2534 52.1373 76.1298C52.307 75.197 52.6043 73.3737 52.8375 72.1016C53.0708 70.8084 53.5582 68.6671 53.8974 67.3317C54.2579 65.9962 54.788 64.1734 55.0848 63.3041C55.3817 62.4349 55.997 60.8027 56.4636 59.7001C56.9303 58.5978 58.0753 56.202 59.0081 54.4002C59.9412 52.5984 61.1499 50.4366 61.6801 49.631C62.1892 48.8042 63.4402 47.0442 64.458 45.7086C65.4548 44.3731 67.024 42.4228 67.9572 41.3629C68.8688 40.3242 70.3956 38.7345 71.3498 37.8654C72.283 36.9961 73.7253 35.7026 74.5525 35.003C75.358 34.3035 76.6088 33.2861 77.3086 32.7561C78.0084 32.2262 79.0476 31.4421 79.6414 31.0393C80.2141 30.6365 81.7411 29.6824 83.0347 28.9193C84.3069 28.1561 86.131 27.1592 87.0638 26.6928C87.9968 26.2265 89.6719 25.4423 90.7747 24.9759C91.8768 24.5096 93.9343 23.7249 95.3334 23.2374C96.7338 22.771 98.7273 22.1354 99.7877 21.8598C100.827 21.563 103.117 21.0966 104.877 20.7998C106.616 20.5242 108.991 20.2483 110.157 20.2271C111.939 20.1635 112.278 20.2275 112.49 20.5243C112.659 20.7999 112.638 21.2026 112.384 22.2201C112.193 22.9622 111.578 25.167 111.047 27.1596C110.496 29.1311 109.988 30.806 109.881 30.8696C109.774 30.9334 108.523 31.145 107.083 31.3568C105.64 31.5689 103.159 32.0568 101.59 32.4595C100.021 32.8412 98.0056 33.4343 97.1364 33.7523C96.2672 34.0491 95.122 34.5153 94.5921 34.7485C94.0616 34.9817 92.5777 35.6816 91.3052 36.2964C90.0118 36.9112 87.7207 38.2469 86.1729 39.2856C84.6464 40.3032 82.4624 41.9143 81.3384 42.847C80.1934 43.7797 78.3484 45.4968 77.2245 46.6628C76.1005 47.8287 74.3402 49.8853 73.3013 51.2209C72.2834 52.5565 70.8196 54.6763 70.0776 55.927C69.3352 57.1991 68.2544 59.1493 67.6817 60.2728C67.1093 61.4178 66.2183 63.4527 65.7092 64.7882C65.1791 66.1237 64.5005 68.0312 64.2036 69.0275C63.8853 70.0241 63.5041 71.4872 63.3344 72.314C63.1647 73.1197 62.8253 75.1543 62.592 76.8077C62.2737 78.97 62.1469 80.9208 62.1469 83.6133C62.1469 85.6697 62.2955 88.5106 62.4652 89.9098C62.6345 91.3083 62.9312 93.2583 63.101 94.2548C63.2921 95.2514 63.6312 96.7778 63.886 97.6471C64.119 98.5164 64.84 100.658 65.4758 102.417C66.1332 104.155 67.0667 106.423 67.5758 107.441C68.0846 108.48 69.1238 110.323 69.8658 111.574C70.6082 112.846 71.774 114.627 72.4314 115.56C73.1101 116.492 74.1916 117.913 74.849 118.74C75.5063 119.545 77.0336 121.242 78.2633 122.513C79.4934 123.786 81.3379 125.567 82.3983 126.457C83.4372 127.347 85.6005 129 87.1696 130.103C88.7387 131.226 90.8804 132.626 91.9408 133.199C92.9803 133.792 94.613 134.639 95.5461 135.106C96.4793 135.593 98.5792 136.462 100.212 137.077C101.845 137.692 103.944 138.434 104.877 138.71C105.81 138.985 107.612 139.431 108.906 139.706C110.178 139.982 111.96 140.321 112.83 140.469C113.699 140.596 114.695 140.745 115.055 140.787C115.395 140.829 116.265 140.936 116.964 141C117.664 141.085 120.23 141.147 122.69 141.126C125.128 141.126 127.8 141.063 128.628 141C129.434 140.915 130.452 140.809 130.854 140.766C131.257 140.703 131.936 140.618 132.338 140.554C132.741 140.512 134.268 140.236 135.731 139.939C137.195 139.642 139.421 139.07 140.715 138.667C141.987 138.243 143.451 137.713 143.939 137.501C144.447 137.268 145.105 137.014 145.423 136.929C145.763 136.845 146.653 136.462 147.438 136.081C148.244 135.699 148.901 135.381 148.921 135.381C148.966 135.38 149.983 134.829 151.212 134.152C152.442 133.473 154.478 132.223 155.771 131.375C157.044 130.506 158.909 129.128 159.907 128.301C160.882 127.474 162.876 125.608 164.296 124.146C165.738 122.683 167.137 121.135 167.434 120.69C167.731 120.266 168.05 119.906 168.177 119.906C168.283 119.906 168.388 119.801 168.388 119.694C168.388 119.567 169.025 118.655 169.788 117.617C170.552 116.599 171.379 115.433 171.591 115.03C171.825 114.627 172.291 113.8 172.651 113.228C172.99 112.635 173.881 110.981 174.602 109.519C175.344 108.056 176.192 106.19 176.511 105.385C176.808 104.558 177.253 103.286 177.486 102.523C177.72 101.759 178.101 100.381 178.335 99.4489C178.568 98.5157 178.907 96.9899 179.098 96.0567C179.268 95.1241 179.458 93.4919 179.501 92.453C179.543 91.3938 179.501 90.3764 179.395 90.1636C179.289 89.9731 179.14 89.8458 179.034 89.8882C178.949 89.9522 178.588 90.0364 178.25 90.1003C177.889 90.1636 177.105 90.3118 176.49 90.439C175.896 90.5447 175.196 90.736 174.963 90.8632C174.73 90.9689 174.496 91.2874 174.454 91.5413C174.391 91.8167 174.242 92.7923 174.094 93.7256C173.966 94.6581 173.521 96.5657 173.118 97.9642C172.715 99.3641 172.058 101.356 171.634 102.417C171.231 103.455 170.488 105.045 170.022 105.914C169.555 106.784 168.644 108.31 168.007 109.307C167.371 110.303 166.226 111.914 165.441 112.911C164.677 113.907 163.278 115.518 162.345 116.493C161.412 117.468 159.694 119.037 158.528 120.013C157.362 120.966 155.728 122.216 154.922 122.789C154.096 123.383 152.484 124.421 151.318 125.142C150.152 125.842 147.947 126.965 146.441 127.644C144.914 128.322 143.111 129.085 142.411 129.34C141.711 129.615 139.57 130.209 137.64 130.675C135.711 131.141 132.996 131.714 131.596 131.926C129.645 132.223 127.8 132.307 123.751 132.307C119.531 132.307 118.004 132.223 116.328 131.926C115.162 131.714 113.02 131.29 111.556 130.993C110.093 130.718 107.804 130.103 106.468 129.658C105.131 129.212 102.65 128.217 100.954 127.453C99.2572 126.69 97.1155 125.609 96.1824 125.079C95.2492 124.527 93.7229 123.595 92.7898 123.002C91.8566 122.387 90.1391 121.157 88.9723 120.245C87.8062 119.355 85.6218 117.404 84.1163 115.92C82.6319 114.437 80.9565 112.656 80.4048 111.957C79.8747 111.257 79.1332 110.261 78.7512 109.731C78.3696 109.201 77.4573 107.78 76.6939 106.55C75.9515 105.32 74.8917 103.413 74.34 102.311C73.7888 101.208 72.962 99.1944 72.5168 97.8585C72.0713 96.5233 71.4348 93.9794 71.0744 92.2409C70.7353 90.4814 70.3321 88.1921 70.1834 87.153C70.0352 86.0931 69.9083 83.2307 69.8869 76.2777L70.4168 75.7056C70.7137 75.4087 71.5198 74.8791 72.2197 74.5187C72.9191 74.1794 74.4459 73.6284 75.6123 73.2681C76.7784 72.9077 79.027 72.3136 80.5961 71.9747C82.1654 71.6143 83.9893 71.2324 84.6252 71.1264C85.2617 71.0204 87.4036 70.7026 89.3965 70.4057C91.3685 70.1089 93.8488 69.77 94.9099 69.664C95.9487 69.5367 97.7726 69.3462 98.9394 69.2399C100.106 69.1129 102.544 68.9218 104.346 68.8158C106.149 68.6887 110.263 68.4553 113.465 68.2858C116.667 68.1163 119.53 67.9682 119.827 67.9682C120.124 67.9682 120.485 67.8834 120.633 67.7985C120.845 67.6925 120.802 67.2472 120.357 65.7423C119.997 64.4703 119.763 63.0713 119.679 61.5025C119.593 60.0184 119.636 58.5554 119.827 57.4742C119.976 56.5415 120.336 55.0576 120.611 54.1884C120.908 53.3193 121.63 51.6445 122.202 50.4785C122.796 49.3125 123.962 47.2136 124.81 45.8145C125.658 44.4154 126.74 42.3593 127.207 41.257C127.695 40.1547 128.267 38.4376 128.5 37.4412C128.839 36.0208 128.946 34.9393 128.946 32.353C128.946 29.9578 128.84 28.5587 128.543 27.1596C128.309 26.0998 127.8 24.3827 127.398 23.3439C126.995 22.2841 126.529 21.1392 126.337 20.7998C126.147 20.4394 126.04 20.1001 126.104 20.0153ZM62.4954 142.569C61.3919 141.572 59.689 141.658 58.6919 142.762L21.3682 184.067C20.3711 185.171 20.4573 186.874 21.5608 187.871C22.6643 188.869 24.3672 188.782 25.3644 187.679L62.6881 146.373C63.6851 145.269 63.5986 143.567 62.4954 142.569ZM79.3659 84.2065C78.7724 84.1006 78.6453 84.1641 78.4967 84.5669C78.412 84.8212 78.454 86.0719 78.6026 87.3652C78.7722 88.6372 79.0479 90.4599 79.239 91.3931C79.4298 92.3257 80.0448 94.4669 80.5961 96.163C81.1477 97.8585 82.0594 100.149 82.6106 101.251C83.1623 102.354 84.0946 104.071 84.6883 105.067C85.3035 106.063 86.3427 107.611 87.0001 108.501C87.679 109.413 89.0147 111.003 89.9694 112.042C90.945 113.08 92.3016 114.394 93.0018 114.967C93.7014 115.539 94.889 116.493 95.6525 117.065C96.416 117.638 97.879 118.655 98.9394 119.312C99.9782 119.949 101.463 120.818 102.226 121.242C102.99 121.666 104.453 122.365 105.513 122.831C106.552 123.276 107.994 123.849 108.694 124.104C109.394 124.337 110.624 124.719 111.451 124.952C112.257 125.184 113.295 125.439 113.72 125.503C114.257 125.588 114.575 125.538 114.674 125.354C114.738 125.228 114.61 124.973 114.398 124.846C114.186 124.698 112.744 124.167 111.239 123.68C109.542 123.15 107.146 122.132 104.983 121.029C102.608 119.842 100.741 118.719 99.1508 117.531C97.8574 116.556 95.7158 114.67 94.3585 113.334C93.0227 111.999 91.4749 110.323 90.945 109.624C90.4145 108.925 89.4382 107.546 88.7811 106.55C88.124 105.554 87.0638 103.752 86.4491 102.523C85.8342 101.293 85.0917 99.6819 84.7948 98.9183C84.4979 98.1554 83.9468 96.4815 83.5863 95.2096C83.2258 93.9161 82.7803 92.1136 82.6106 91.181C82.4199 90.2485 82.1862 88.6156 82.059 87.5773C81.9529 86.5171 81.805 85.4571 81.7625 85.1816C81.6778 84.8427 81.4442 84.6732 80.8506 84.5248C80.4265 84.4188 79.7475 84.27 79.3659 84.2065ZM132.02 71.7412C131.193 71.6777 129.37 71.6777 127.928 71.7202C125.701 71.7837 125.319 71.8264 125.213 72.1443C125.128 72.3564 125.235 73.0985 125.426 73.7981C125.617 74.4976 125.722 75.1121 125.659 75.1756C125.595 75.2389 124.831 74.5183 124.004 73.6067L122.478 71.9326C113.105 72.1445 108.482 72.3352 106.149 72.5257C103.817 72.6955 100.954 72.9283 99.7877 73.0557C98.6216 73.1827 96.7971 73.3738 95.7575 73.4798C94.6978 73.5858 92.9803 73.7769 91.9408 73.8829C90.8804 73.9889 88.1664 74.4758 85.8974 74.9422C83.6285 75.4085 81.233 76.0022 80.5961 76.2567C79.9602 76.5111 79.2808 76.8506 79.1115 76.999C78.9205 77.1685 78.8569 77.402 78.9418 77.6138C79.0478 77.7834 79.7057 78.2073 80.4265 78.5463C81.1685 78.8856 82.9072 79.4372 84.307 79.7975C85.7063 80.158 88.2728 80.6876 90.0321 80.9844C91.7711 81.281 94.825 81.7049 96.8186 81.938C98.7906 82.1713 102.608 82.5318 105.301 82.7224C108.737 82.9768 114.101 83.104 123.538 83.1675C131.596 83.2311 139.464 83.1887 143.366 83.0407C146.929 82.9133 151.064 82.7014 152.59 82.5955C154.096 82.4681 156.535 82.2773 157.998 82.1713C159.461 82.0439 161.497 81.8532 162.557 81.7262C163.596 81.5992 165.95 81.281 167.753 80.9844C169.555 80.7086 172.143 80.1997 173.478 79.8607C174.814 79.5428 176.489 79.0338 177.189 78.758C178.164 78.3555 178.483 78.1432 178.504 77.7618C178.547 77.4015 178.377 77.1893 177.72 76.8714C177.253 76.6381 176.087 76.2145 175.112 75.9391C174.157 75.6633 172.227 75.197 170.828 74.9001C169.428 74.6036 167.668 74.2644 166.905 74.1374C166.141 74.0314 164.72 73.8185 163.723 73.6915C162.727 73.5641 161.306 73.3741 160.543 73.2681C159.779 73.1621 158.061 72.9713 156.725 72.8439C155.389 72.738 153.226 72.5472 151.954 72.4198C150.661 72.3138 147.141 72.1017 144.108 71.9957C141.076 71.8687 137.449 71.784 136.049 71.805C134.65 71.8264 132.826 71.7837 132.02 71.7412ZM119.488 27.9442C119.297 27.3506 119.319 27.2441 119.594 27.3076C119.785 27.35 120.23 27.9436 120.611 28.6431C120.972 29.3427 121.439 30.5092 121.608 31.23C121.799 31.972 121.948 33.4561 121.948 34.5795C121.948 35.915 121.8 37.1657 121.503 38.3315C121.269 39.3066 120.782 40.7055 120.421 41.4687C120.082 42.2319 119.191 43.7587 118.47 44.861C117.728 45.9634 116.646 47.7229 116.053 48.7827C115.437 49.8214 114.738 51.2631 114.483 51.9627C114.122 52.9589 113.996 53.8281 113.932 55.9901C113.889 57.9195 113.932 59.0222 114.144 59.6369C114.292 60.1457 114.356 60.5903 114.25 60.6542C114.165 60.7177 113.889 60.5269 113.614 60.2301C113.359 59.9335 112.787 59.0853 112.341 58.3646C111.896 57.6438 111.387 56.5837 111.217 55.9901C111.048 55.3966 110.836 54.4425 110.772 53.8702C110.709 53.2554 110.794 52.1106 110.985 51.1144C111.175 50.1817 111.536 48.8887 111.811 48.2527C112.065 47.6167 112.617 46.514 113.041 45.8145C113.465 45.115 114.293 43.9283 114.907 43.1652C115.501 42.402 116.625 40.7907 117.388 39.5611C118.152 38.3316 118.979 36.7203 119.255 35.9571C119.657 34.7911 119.72 34.1341 119.72 31.6113C119.72 29.9793 119.615 28.3262 119.488 27.9442Z" fill="url(#paint0_linear_9_31)"/>
</g>
<defs>
<filter id="filter0_d_9_31" x="0" y="0" width="210" height="220" filterUnits="userSpaceOnUse" color-interpolation-filters="sRGB">
<feFlood flood-opacity="0" result="BackgroundImageFix"/>
<feColorMatrix in="SourceAlpha" type="matrix" values="0 0 0 0 0 0 0 0 0 0 0 0 0 0 0 0 0 0 127 0" result="hardAlpha"/>
<feOffset/>
<feGaussianBlur stdDeviation="10"/>
<feComposite in2="hardAlpha" operator="out"/>
<feColorMatrix type="matrix" values="0 0 0 0 0.654902 0 0 0 0 0.92549 0 0 0 0 0.952941 0 0 0 0.1 0"/>
<feBlend mode="normal" in2="BackgroundImageFix" result="effect1_dropShadow_9_31"/>
<feBlend mode="normal" in="SourceGraphic" in2="effect1_dropShadow_9_31" result="shape"/>
</filter>
<linearGradient id="paint0_linear_9_31" x1="157.5" y1="35.5" x2="30.5" y2="191" gradientUnits="userSpaceOnUse">
<stop stop-color="#014466"/>
<stop offset="0.15" stop-color="#0284C7"/>
<stop offset="0.3" stop-color="#68D0F8"/>
<stop offset="0.36" stop-color="#2FA6E1"/>
<stop offset="0.55" stop-color="#0284C7"/>
<stop offset="0.775" stop-color="#68D0F8"/>
<stop offset="0.82" stop-color="#2FA6E1"/>
<stop offset="0.9" stop-color="#0284C7"/>
<stop offset="1" stop-color="#014466"/>
</linearGradient>
</defs>
</svg>
