<svg width="32" height="32" viewBox="0 0 32 32" fill="none" xmlns="http://www.w3.org/2000/svg">
<path d="M24 9.54669C23.92 9.53335 23.8267 9.53335 23.7467 9.54669C21.9067 9.48002 20.44 7.97335 20.44 6.10669C20.44 4.20002 21.9733 2.66669 23.88 2.66669C25.7867 2.66669 27.32 4.21335 27.32 6.10669C27.3067 7.97335 25.84 9.48002 24 9.54669Z" stroke="currentColor" stroke-width="2" stroke-linecap="round" stroke-linejoin="round"/>
<path d="M22.6265 19.2533C24.4532 19.56 26.4665 19.24 27.8799 18.2933C29.7599 17.04 29.7599 14.9867 27.8799 13.7333C26.4532 12.7867 24.4132 12.4667 22.5865 12.7867" stroke="currentColor" stroke-width="2" stroke-linecap="round" stroke-linejoin="round"/>
<path d="M7.95998 9.54669C8.03998 9.53335 8.13332 9.53335 8.21332 9.54669C10.0533 9.48002 11.52 7.97335 11.52 6.10669C11.52 4.20002 9.98665 2.66669 8.07998 2.66669C6.17332 2.66669 4.63998 4.21335 4.63998 6.10669C4.65332 7.97335 6.11998 9.48002 7.95998 9.54669Z" stroke="currentColor" stroke-width="2" stroke-linecap="round" stroke-linejoin="round"/>
<path d="M9.33325 19.2533C7.50659 19.56 5.49325 19.24 4.07992 18.2933C2.19992 17.04 2.19992 14.9867 4.07992 13.7333C5.50659 12.7867 7.54659 12.4667 9.37326 12.7867" stroke="currentColor" stroke-width="2" stroke-linecap="round" stroke-linejoin="round"/>
<path d="M16 19.5067C15.92 19.4934 15.8267 19.4934 15.7467 19.5067C13.9067 19.44 12.4399 17.9334 12.4399 16.0667C12.4399 14.16 13.9733 12.6266 15.88 12.6266C17.7867 12.6266 19.32 14.1734 19.32 16.0667C19.3067 17.9334 17.84 19.4534 16 19.5067Z" stroke="currentColor" stroke-width="2" stroke-linecap="round" stroke-linejoin="round"/>
<path d="M12.12 23.7067C10.24 24.96 10.24 27.0133 12.12 28.2667C14.2533 29.6933 17.7467 29.6933 19.88 28.2667C21.76 27.0133 21.76 24.96 19.88 23.7067C17.76 22.2933 14.2533 22.2933 12.12 23.7067Z" stroke="currentColor" stroke-width="2" stroke-linecap="round" stroke-linejoin="round"/>
</svg>
