<svg width="32" height="32" viewBox="0 0 32 32" fill="none" xmlns="http://www.w3.org/2000/svg">
<path d="M13.5319 27.0639C15.8563 27.066 18.1416 26.4654 20.1646 25.3208L25.7766 30.9323C26.4603 31.6159 27.3876 32 28.3544 32C29.3213 32 30.2486 31.6159 30.9322 30.9323C31.6159 30.2487 32 29.3215 32 28.3548C32 27.388 31.6159 26.4608 30.9322 25.7772L25.3202 20.1656C26.9251 17.3166 27.4435 13.9828 26.7797 10.781C26.1158 7.57923 24.3146 4.72627 21.7093 2.75005C19.104 0.773835 15.8709 -0.191862 12.6084 0.0316589C9.34596 0.255179 6.27488 1.65279 3.96348 3.96586C2.07099 5.85812 0.782177 8.26904 0.26003 10.8937C-0.262116 13.5184 0.00585371 16.239 1.03005 18.7114C2.05425 21.1838 3.78868 23.297 6.01399 24.7837C8.23931 26.2704 10.8556 27.0639 13.5319 27.0639ZM6.34506 6.34724C8.00768 4.68552 10.1951 3.65162 12.5346 3.42169C14.8741 3.19176 17.2209 3.78002 19.1753 5.08625C21.1296 6.39249 22.5706 8.33588 23.2527 10.5853C23.9348 12.8348 23.8157 15.2511 22.9159 17.4226C22.0161 19.5942 20.3911 21.3866 18.3178 22.4945C16.2445 23.6023 13.8512 23.9572 11.5457 23.4985C9.24008 23.0398 7.16488 21.796 5.67361 19.9789C4.18234 18.1619 3.36726 15.884 3.36724 13.5335C3.36316 12.1982 3.62428 10.8754 4.13546 9.64176C4.64664 8.40817 5.39769 7.28834 6.34506 6.34724Z" fill="currentColor"/>
</svg>
