<svg width="32" height="32" viewBox="0 0 32 32" fill="none" xmlns="http://www.w3.org/2000/svg">
<path d="M15.9782 5.94801C17.2667 5.94801 18.3158 4.89901 18.3158 3.61051C18.3158 2.32201 17.2667 1.27301 15.9782 1.27301C14.6897 1.27301 13.6407 2.32201 13.6407 3.61051C13.6407 4.89901 14.6897 5.94801 15.9782 5.94801ZM3.27625 5.94801C1.98775 5.94801 0.93875 4.89901 0.93875 3.61051C0.93875 2.32201 1.98775 1.27301 3.27625 1.27301C4.56475 1.27301 5.61375 2.32201 5.61375 3.61051C5.61375 4.89901 4.56475 5.94801 3.27625 5.94801ZM28.7237 5.94801C30.0122 5.94801 31.0613 4.89901 31.0613 3.61051C31.0613 2.32201 30.0122 1.27301 28.7237 1.27301C27.4352 1.27301 26.3862 2.32201 26.3862 3.61051C26.3862 4.89901 27.4352 5.94801 28.7237 5.94801ZM31.7458 17.256C31.7458 17.6519 31.171 29.1775 31.171 29.1775C31.171 30.0523 30.4963 30.727 29.6215 30.727C28.7467 30.727 28.072 30.0523 28.072 29.1775C28.072 29.1775 26.9949 17.181 26.6976 12.7018L24.23 15.6673C24.0182 15.9216 23.7057 16.0663 23.379 16.0663C23.3366 16.0663 23.294 16.0639 23.2514 16.0589C22.8799 16.0158 22.5553 15.7883 22.3883 15.4536L19.4301 9.53014V29.0371C19.4301 29.9665 18.7421 30.7268 17.8853 30.7268C17.0284 30.7268 16.3404 29.9665 16.3404 29.0371V18.3563C16.3404 18.1873 16.1955 18.0424 16.0265 18.0424C15.8575 18.0424 15.7126 18.1873 15.7126 18.3563V29.0373C15.7126 29.9666 15.0246 30.7269 14.1678 30.7269C13.3109 30.7269 12.6229 29.9666 12.6229 29.0373V9.42339L9.61137 15.4538C9.44437 15.7884 9.11975 16.0159 8.74837 16.059C8.70575 16.0639 8.66313 16.0664 8.62075 16.0664C8.29413 16.0664 7.9815 15.9218 7.76975 15.6674L5.30237 12.7018C5.00512 17.181 3.928 29.1774 3.928 29.1774C3.928 30.0521 3.25325 30.7269 2.3785 30.7269C1.50375 30.7269 0.829 30.0521 0.829 29.1774C0.829 29.1774 0.25425 17.6519 0.25425 17.256C0.25425 17.256 0.25 8.33864 0.25 8.30976C0.25 7.31351 1.01137 6.60914 1.95062 6.60914C2.66212 6.60914 3.20975 6.84964 3.78175 7.42364C3.79812 7.44014 8.38813 12.9478 8.38813 12.9478C8.38038 12.9385 10.4207 8.81089 10.8265 8.07251C11.3695 7.08464 12.153 6.60876 13.1515 6.60188C13.1539 6.60188 13.1566 6.60126 13.1589 6.60126C13.1589 6.60126 18.793 6.60276 18.8274 6.60401C19.836 6.60126 20.6269 7.07751 21.1739 8.07301C21.1853 8.09264 23.6121 12.9478 23.6121 12.9478C23.6121 12.9478 28.2014 7.44014 28.2189 7.42326C28.778 6.83714 29.4126 6.60914 30.0495 6.60914C30.9887 6.60914 31.7501 7.37051 31.7501 8.30976C31.75 8.65151 31.7458 17.256 31.7458 17.256Z" fill="currentColor"/>
</svg>
