<svg width="45" height="32" viewBox="0 0 45 32" fill="none" xmlns="http://www.w3.org/2000/svg">
<path d="M44.0705 11.7979C45.3098 11.2591 45.3098 9.50813 44.0705 8.96926L24.3645 0.387551C23.7704 0.128154 23.136 0 22.5 0C21.864 0 21.2296 0.129698 20.6355 0.389095L0.929534 8.96926C-0.309845 9.50967 -0.309845 11.2591 0.929534 11.7979L10.0907 15.7877V20.9139C10.0907 22.6679 11.0865 24.2721 12.6625 25.0565C15.7602 26.5974 19.1293 27.3679 22.5 27.3679C25.8707 27.3679 29.2398 26.5974 32.3359 25.0565C33.9135 24.2721 34.9093 22.6679 34.9093 20.9139V15.7877L41.114 13.0856V24.2799C40.2577 24.2799 39.5628 24.9716 39.5628 25.8239V30.456C39.5628 31.3083 40.2577 32 41.114 32H42.6651C43.5214 32 44.2163 31.3083 44.2163 30.456V25.8239C44.2163 24.9716 43.5214 24.2799 42.6651 24.2799V12.4094L44.0705 11.7979ZM33.3581 20.9139C33.3581 22.0904 32.7004 23.1496 31.6426 23.6761C28.8194 25.0812 25.6566 25.8239 22.5 25.8239C19.3434 25.8239 16.1806 25.0812 13.3574 23.6761C12.2996 23.1496 11.6419 22.0904 11.6419 20.9139V16.464L20.6355 20.3796C21.2296 20.639 21.8656 20.7687 22.5 20.7687C23.136 20.7687 23.7704 20.639 24.3645 20.3796L33.3581 16.4624V20.9139ZM23.744 18.9653C23.35 19.1367 22.9312 19.2247 22.5 19.2247C22.0688 19.2247 21.6515 19.1382 21.256 18.9653L1.55155 10.3836L21.256 1.80188C21.6515 1.63049 22.0688 1.54403 22.5 1.54403C22.9312 1.54403 23.3485 1.63049 23.744 1.80343L43.4484 10.3836L41.7142 11.1386L23.8867 9.71966C23.6355 9.20241 23.1143 8.83957 22.5 8.83957C21.6438 8.83957 20.9488 9.53129 20.9488 10.3836C20.9488 11.2359 21.6438 11.9276 22.5 11.9276C23.0227 11.9276 23.4633 11.6528 23.744 11.2575L38.7065 12.4495L23.744 18.9653Z" fill="currentColor"/>
</svg>
