<svg width="32" height="32" viewBox="0 0 32 32" fill="none" xmlns="http://www.w3.org/2000/svg">
<circle cx="16" cy="16" r="15.5" stroke="currentColor"/>
<path d="M11.5299 13.1314H8.41232V24H11.5299V13.1314Z" fill="currentColor"/>
<path d="M9.90549 8.00006C8.75594 8.00006 7.99998 8.80993 7.99998 9.88522C7.99998 10.9401 8.73095 11.7704 9.86176 11.7704H9.88675C11.0613 11.7704 11.7923 10.9333 11.786 9.88522C11.761 8.80993 11.055 8.00006 9.90549 8.00006Z" fill="currentColor"/>
<path d="M20.0453 13.0294C18.2585 13.0294 17.1402 14.091 16.934 14.8397V13.1314H13.4291C13.4729 14.0366 13.4291 24 13.4291 24H16.934V18.1268C16.934 17.7933 16.9215 17.4666 17.009 17.2352C17.2464 16.5819 17.7649 15.9013 18.6958 15.9013C19.9141 15.9013 20.4639 16.9086 20.4639 18.3786V24H24V17.9566C24 14.5946 22.2632 13.0294 20.0453 13.0294Z" fill="currentColor"/>
</svg>
