<svg width="32" height="32" viewBox="0 0 32 32" fill="none" xmlns="http://www.w3.org/2000/svg">
<path d="M23.8046 22.506C23.5946 22.7088 23.3293 22.8579 23.0337 22.9295L23.022 22.9317C22.7966 22.9751 22.5368 23 22.2715 23C21.6238 23 21.0109 22.8514 20.4676 22.5868L20.4914 22.5971C18.0789 21.556 18.6117 18.918 19.6701 17.0993C19.9879 16.5533 20.3012 16.0029 20.6168 15.4509C20.865 15.0171 21.4022 14.2824 21.1916 13.7505C20.9705 13.1925 20.3808 13.1893 19.9934 13.6594C19.643 14.13 19.3269 14.6652 19.071 15.2324L19.0489 15.2877C18.7687 15.8614 17.3687 18.8763 17.3687 18.8763C17.0631 19.4906 16.6724 20.0155 16.2043 20.4623L16.2031 20.4634C15.9959 20.6272 15.7295 20.7258 15.4399 20.7258C15.1962 20.7258 14.9696 20.6559 14.7789 20.5355L14.7839 20.5382C14.5694 20.3875 14.4313 20.144 14.4313 19.8691C14.4313 19.791 14.4423 19.7151 14.4633 19.6435L14.4617 19.6495C14.7529 18.0108 17.2864 14.1978 15.5394 13.9289C14.8695 13.8258 14.6877 14.5568 14.4816 15.0236C14.14 15.7947 13.8797 16.5972 13.5149 17.3591C13.1308 18.1366 12.8003 19.046 12.5721 19.9933L12.5533 20.0849C12.3764 20.8365 12.1493 21.7935 11.2777 22.0223C8.89015 22.6481 8.16615 21.1022 8.16615 21.1022C7.77652 19.8875 8.1457 18.7922 8.51986 17.6226C8.81002 16.7192 8.983 15.7871 9.34998 14.9082C10.0049 13.3411 10.6576 10.0703 13.0197 10.2796C13.6962 10.3815 14.3025 10.6104 14.8364 10.9417L14.817 10.9303C15.2901 11.2009 15.6505 11.3456 16.2015 11.0539C16.7376 10.7709 16.983 10.2433 17.6219 10.0622C18.3061 9.86803 18.7565 10.1549 19.2683 10.5594C19.9857 11.1233 20.0641 10.8695 20.656 10.721C20.9617 10.6369 21.3132 10.5887 21.6763 10.5887C21.8808 10.5887 22.0814 10.6039 22.277 10.6337L22.2549 10.631C25.0238 11.0962 23.2603 14.5644 22.5998 15.9579C22.1698 16.8646 20.1183 20.5106 21.9366 21.0002C22.4848 21.1477 23.1917 21.0805 23.6488 21.4665C24.1119 21.858 24.0661 22.2279 23.8046 22.5049V22.506Z" fill="currentColor"/>
<circle cx="16" cy="16" r="15.5" stroke="currentColor"/>
</svg>
