<svg width="10" height="13" viewBox="0 0 10 13" fill="none" xmlns="http://www.w3.org/2000/svg">
<path d="M9.5 4.78571C9.5 6.26677 7.73816 9.06346 6.4193 11.0894C5.80703 12.0298 5.50094 12.5 5 12.5C4.49906 12.5 4.19297 12.0298 3.5807 11.0894C2.26187 9.06346 0.5 6.26677 0.5 4.78571C0.5 2.41878 2.51472 0.5 5 0.5C7.48526 0.5 9.5 2.41878 9.5 4.78571Z" stroke="currentColor" stroke-linecap="round" stroke-linejoin="round"/>
<path d="M6.5 5C6.5 5.82842 5.82842 6.5 5 6.5C4.17158 6.5 3.5 5.82842 3.5 5C3.5 4.17157 4.17158 3.5 5 3.5C5.82842 3.5 6.5 4.17157 6.5 5Z" stroke="currentColor" stroke-linecap="round" stroke-linejoin="round"/>
</svg>
