<svg width="32" height="32" viewBox="0 0 32 32" fill="none" xmlns="http://www.w3.org/2000/svg">
<path d="M24.1396 4.93463L21.0233 8.05094L21.313 8.35182C21.1066 8.51851 20.8977 8.68113 20.695 8.82551C20.3677 9.05926 20.0536 9.24676 19.8407 9.33469C19.8269 9.34082 19.7691 9.35707 19.6542 9.35657C19.4707 9.35857 19.1637 9.31182 18.7877 9.25444C18.4101 9.19751 17.9583 9.13557 17.4491 9.13501C17.0049 9.13351 16.515 9.18738 15.9992 9.32913C15.4844 9.18788 14.9955 9.13501 14.5524 9.13557C14.0426 9.13557 13.5909 9.19757 13.2133 9.25501C12.8372 9.31238 12.5308 9.35919 12.3473 9.35713C12.2319 9.35813 12.1745 9.34088 12.1628 9.33526C11.9356 9.24226 11.5931 9.03488 11.2404 8.77826C11.058 8.64563 10.872 8.50026 10.6875 8.35088L10.9767 8.05101L7.86037 4.93469L0 13.076L3.11631 16.1923L4.0285 15.2476L6.042 17.0049C6.09837 17.3418 6.20463 17.6599 6.32713 17.9619C6.40688 18.154 6.49431 18.3389 6.58381 18.5128C6.38913 18.835 6.28294 19.2029 6.28394 19.5759C6.28344 19.9459 6.38506 20.324 6.59394 20.6599C6.91156 21.1707 7.42031 21.4919 7.96962 21.5935C7.97275 21.9569 8.07337 22.3274 8.27812 22.6567C8.66694 23.2818 9.33981 23.6284 10.0259 23.6273C10.0523 23.6273 10.0793 23.6233 10.1056 23.6223C10.1402 23.9129 10.2357 24.2026 10.3994 24.4659C10.7882 25.0909 11.4615 25.4376 12.1466 25.4365C12.2147 25.4365 12.2823 25.4294 12.3509 25.4228C12.3834 25.6845 12.4703 25.9457 12.6172 26.1815C12.9714 26.7508 13.5843 27.0668 14.2078 27.0653C14.5442 27.0658 14.8888 26.9743 15.1947 26.7843L16.1289 26.2029C16.3129 26.3218 16.5059 26.4265 16.7087 26.5119C17.0863 26.6709 17.4944 26.7685 17.9188 26.769C18.3843 26.7711 18.8757 26.6435 19.2985 26.3462C19.5739 26.1541 19.8072 25.8908 19.9982 25.5804C20.0277 25.5814 20.0516 25.5865 20.0821 25.587C20.2757 25.587 20.4882 25.558 20.6986 25.4924C20.9105 25.4279 21.1209 25.3313 21.3456 25.2028C21.8812 24.9009 22.2024 24.4568 22.3584 24.0761C22.393 23.9928 22.4179 23.9145 22.4403 23.8388C22.5699 23.7977 22.6939 23.7473 22.8061 23.6823C23.2203 23.4439 23.4902 23.0816 23.6564 22.7178C23.8231 22.3503 23.8962 21.9686 23.8972 21.6018C23.8972 21.5656 23.8927 21.5306 23.8911 21.495C24.162 21.3843 24.4054 21.2303 24.6127 21.0488C24.8252 20.8628 25.0036 20.6463 25.1362 20.3993C25.2684 20.1534 25.3568 19.8718 25.3573 19.5634C25.3578 19.3626 25.3166 19.1512 25.2267 18.953C25.1977 18.89 25.1566 18.8321 25.1189 18.7736C25.2771 18.4905 25.4381 18.1714 25.5702 17.8269C25.6693 17.5661 25.7527 17.2928 25.8004 17.0056L27.8998 15.1735L28.8837 16.1924L32 13.076L24.1396 4.93463ZM8.6715 20.0268L8.63538 20.0496C8.54138 20.1076 8.44275 20.1335 8.34112 20.134C8.15256 20.133 7.97163 20.041 7.86544 19.8698C7.8075 19.7758 7.78106 19.6766 7.78106 19.576C7.78206 19.3864 7.87356 19.2065 8.04431 19.1003L9.27875 18.3334C9.37275 18.275 9.47138 18.2496 9.57194 18.2486C9.7615 18.2506 9.94144 18.3411 10.0482 18.5133L10.6839 18.1184L10.0482 18.5138C10.1061 18.6073 10.132 18.7059 10.1326 18.8066C10.1315 18.9387 10.0843 19.0648 9.99894 19.1664L8.93875 19.825C8.84225 19.8849 8.75431 19.9546 8.6715 20.0268ZM10.3196 22.0458C10.2256 22.1038 10.1269 22.1302 10.0258 22.1302C9.83675 22.1292 9.65588 22.0377 9.54963 21.8664C9.49163 21.7724 9.46575 21.6728 9.46525 21.5722C9.46569 21.4411 9.513 21.3151 9.59787 21.2144L10.6585 20.5543C10.7546 20.4948 10.8415 20.4258 10.9243 20.3536L10.9629 20.3302C11.0569 20.2718 11.1561 20.2458 11.2562 20.2458C11.4462 20.2468 11.6256 20.3383 11.7323 20.5101C11.7902 20.6041 11.8162 20.7021 11.8167 20.8033C11.8157 20.9918 11.7247 21.1728 11.5519 21.28L10.3196 22.0458ZM13.6732 23.0887L12.4403 23.8551C12.3468 23.9131 12.2482 23.9394 12.1466 23.9394C11.958 23.9384 11.7771 23.8469 11.6709 23.6757C11.6129 23.5812 11.5871 23.4826 11.5865 23.3814C11.5881 23.1919 11.679 23.0125 11.8497 22.9058L13.0842 22.1389C13.1782 22.0804 13.2768 22.0551 13.3774 22.0551C13.5669 22.0555 13.7469 22.147 13.8536 22.3188C13.9115 22.4129 13.9374 22.5114 13.938 22.6126C13.9369 22.801 13.846 22.9809 13.6732 23.0887ZM15.5846 24.3388C15.6236 24.4013 15.6404 24.4664 15.6409 24.5344C15.6399 24.661 15.5794 24.7814 15.4631 24.8541L14.4044 25.5117C14.3414 25.5513 14.2764 25.5681 14.2078 25.5681C14.0808 25.5676 13.9603 25.5061 13.8886 25.3913C13.8495 25.3277 13.8327 25.2626 13.8322 25.1946C13.8337 25.067 13.8942 24.9476 14.0085 24.8764H14.009L15.0686 24.2178C15.1332 24.1777 15.1977 24.1609 15.2653 24.1609C15.3929 24.1619 15.5123 24.2224 15.5839 24.3378L16.2202 23.9434L15.5846 24.3388ZM23.8169 19.6913C23.7626 19.7965 23.6386 19.9337 23.4816 20.0298C23.3245 20.1269 23.1421 20.1838 22.9673 20.1833C22.9052 20.1833 22.8452 20.1939 22.7868 20.2091C22.6801 20.1858 22.5733 20.1533 22.4682 20.1116C22.1424 19.9845 21.8381 19.7787 21.6231 19.6049C21.5153 19.518 21.4299 19.4398 21.373 19.3854L21.31 19.3229L21.2962 19.3086L21.2942 19.3066H21.2938C21.0843 19.0789 20.7296 19.0637 20.5014 19.2731C20.2733 19.4825 20.2575 19.8372 20.4674 20.0669C20.4862 20.0862 20.7683 20.3941 21.2302 20.7113C21.462 20.8699 21.7389 21.0315 22.0576 21.1565C22.1312 21.1855 22.208 21.2124 22.2868 21.2368C22.3087 21.2861 22.3366 21.3329 22.3696 21.3771L22.3681 21.3781C22.3722 21.3811 22.4027 21.4778 22.4001 21.6018C22.4038 21.8086 22.3285 22.0794 22.2202 22.2288C22.1674 22.3051 22.1136 22.3533 22.0613 22.3833C22.0079 22.4128 21.954 22.4321 21.8529 22.4336L21.8167 22.4331C21.7954 22.4321 21.7751 22.4357 21.7542 22.4367C21.7532 22.4367 21.7528 22.4367 21.7528 22.4367C21.2659 22.4388 20.8126 22.2299 20.4782 22.0012C20.3115 21.8884 20.1778 21.7735 20.0879 21.6892C20.0436 21.6475 20.0096 21.6129 19.9888 21.5916L19.9669 21.5683L19.9634 21.5637H19.9629C19.7601 21.3309 19.4069 21.3055 19.1726 21.5083C18.9378 21.7116 18.9124 22.0658 19.1157 22.3006L19.1152 22.3001C19.1371 22.3245 19.3963 22.6233 19.8471 22.9303C20.1438 23.1309 20.5311 23.3388 20.991 23.4588C20.9859 23.472 20.9829 23.4852 20.9767 23.4984C20.9178 23.6316 20.8334 23.7688 20.6038 23.9029C20.4487 23.9914 20.3379 24.0376 20.2602 24.061C20.1819 24.0844 20.1382 24.089 20.0823 24.0894C20.0097 24.0905 19.9004 24.0742 19.7184 24.0371C19.6854 24.03 19.6524 24.0279 19.6194 24.0259C19.6071 24.0208 19.5955 24.0163 19.5823 24.0096C19.3963 23.9222 19.1696 23.7641 19.0024 23.6295C18.9185 23.5629 18.8474 23.5019 18.7986 23.4588L18.7437 23.4089L18.731 23.3968L18.7284 23.3948C18.5043 23.1803 18.1486 23.1884 17.9341 23.4125C17.7202 23.6366 17.7283 23.9924 17.9524 24.2063C17.9641 24.2169 18.2004 24.4437 18.5317 24.6815C18.5907 24.7232 18.6557 24.7654 18.7208 24.807C18.6293 24.9529 18.5338 25.053 18.4403 25.1196C18.2909 25.2223 18.1282 25.271 17.9189 25.2721C17.7314 25.2726 17.5108 25.2263 17.2903 25.1328C17.2171 25.1023 17.1454 25.0591 17.0732 25.019C17.1154 24.8614 17.1388 24.6983 17.1383 24.5346C17.1388 24.1977 17.0463 23.8531 16.8563 23.5477C16.5336 23.0288 15.9954 22.7239 15.4318 22.6741C15.4318 22.6537 15.4353 22.6334 15.4353 22.6126C15.4358 22.2431 15.3341 21.864 15.1257 21.5286V21.5296C14.7365 20.9025 14.0626 20.5559 13.3775 20.5574C13.3511 20.5574 13.3241 20.5619 13.2978 20.563C13.2632 20.2718 13.1676 19.9831 13.0041 19.7199H13.0045C12.6869 19.2081 12.1777 18.887 11.6283 18.7863C11.6248 18.4229 11.5247 18.0524 11.3198 17.7231H11.3203C10.9316 17.0976 10.2571 16.7504 9.57206 16.7514C9.20156 16.7514 8.824 16.8531 8.48806 17.0614L7.76694 17.5097C7.74963 17.4701 7.72781 17.4314 7.71206 17.3918C7.58656 17.0914 7.50775 16.7951 7.49913 16.5909L7.48238 16.2748L5.07 14.1688L9.64375 9.43182C9.87756 9.62344 10.1174 9.81351 10.3634 9.99138C10.771 10.2851 11.175 10.5443 11.5877 10.7181C11.8525 10.8274 12.1106 10.8543 12.3475 10.8548C12.7266 10.8533 13.0742 10.7883 13.4366 10.7354C13.4599 10.7313 13.4843 10.7293 13.5082 10.7257C13.0102 11.1531 12.5756 11.6156 12.2082 12.0461C11.8987 12.4094 11.6375 12.7519 11.4306 13.0314C11.2264 13.3094 11.0688 13.5336 10.9997 13.622C10.6592 14.0651 10.5129 14.5952 10.5098 15.1263C10.5113 15.6203 10.6424 16.1345 10.9829 16.5691C11.1527 16.784 11.3783 16.9721 11.6476 17.1001C11.9165 17.2292 12.2244 17.2953 12.5451 17.2953C12.9431 17.2942 13.3602 17.1977 13.8019 17.0121C15.1883 16.4257 16.6174 16.0349 17.6927 15.794C18.2304 15.6741 18.6801 15.5908 18.9937 15.5384C19.0527 15.5287 19.1019 15.5206 19.1507 15.5125L23.8552 19.568L23.8572 19.569L23.8587 19.5716C23.8581 19.5861 23.8509 19.6283 23.8169 19.6913ZM24.3612 16.2747L24.3449 16.5908C24.3363 16.7717 24.2748 17.0268 24.1716 17.2911C24.1193 17.4293 24.0553 17.5686 23.9882 17.7058L19.8682 14.1544C19.7081 14.0163 19.4947 13.9522 19.2848 13.9786C19.2483 13.9858 16.2264 14.3649 13.2194 15.6324C12.9201 15.7589 12.6954 15.798 12.545 15.797C12.4226 15.797 12.3478 15.7751 12.2924 15.7487C12.2121 15.7096 12.1547 15.6541 12.0978 15.5479C12.0434 15.4433 12.0063 15.2888 12.0069 15.1262C12.0038 14.8924 12.0872 14.6546 12.1806 14.5418C12.2971 14.3914 12.4393 14.1861 12.6355 13.9208C12.9266 13.5264 13.3221 13.0161 13.7936 12.5196C14.2642 12.0231 14.8116 11.5424 15.3853 11.2049C16.1614 10.7491 16.8226 10.6347 17.4492 10.6326C17.8349 10.6321 18.2048 10.6804 18.5657 10.7348C18.9275 10.7881 19.2761 10.8521 19.6542 10.8542C19.8906 10.8537 20.1472 10.8268 20.411 10.719L20.4145 10.718C20.8272 10.5442 21.2312 10.285 21.6388 9.99126C21.8833 9.81438 22.1241 9.62332 22.3569 9.43226L26.8591 14.095L24.3612 16.2747Z" fill="currentColor"/>
</svg>
