<svg width="32" height="32" viewBox="0 0 32 32" fill="none" xmlns="http://www.w3.org/2000/svg">
<path d="M15.1448 27.5775C15.4185 27.7201 15.5555 27.7915 15.7453 27.8284C15.8933 27.8572 16.1067 27.8572 16.2547 27.8284C16.4445 27.7915 16.5815 27.7201 16.8552 27.5775C19.3867 26.2585 26.6667 21.9483 26.6667 16.0001V10.957C26.6667 9.89093 26.6667 9.35793 26.4923 8.89976C26.3383 8.49501 26.088 8.13385 25.7631 7.84752C25.3953 7.5234 24.8963 7.33625 23.8981 6.96195L16.7491 4.28105C16.4719 4.17711 16.3333 4.12513 16.1907 4.10452C16.0643 4.08625 15.9357 4.08625 15.8093 4.10452C15.6667 4.12513 15.5281 4.17711 15.2509 4.28105L8.10188 6.96195C7.10374 7.33625 6.60468 7.5234 6.23689 7.84752C5.91198 8.13385 5.6617 8.49501 5.50769 8.89976C5.33334 9.35793 5.33334 9.89093 5.33334 10.957V16.0001C5.33334 21.9483 12.6133 26.2585 15.1448 27.5775Z" stroke="currentColor" stroke-width="3" stroke-linecap="round" stroke-linejoin="round"/>
</svg>
